HIERARCHY
ROOT Hips
{
	OFFSET 0.000000 0.000000 0.000000
	CHANNELS 6 Xposition Yposition Zposition Zrotation Yrotation Xrotation 
	JOINT LHipJoint
	{
		OFFSET 0.000000 0.000000 0.000000
		CHANNELS 3 Zrotation Yrotation Xrotation
		JOINT LeftUpLeg
		{
			OFFSET 1.363060 -1.794630 0.839290
			CHANNELS 3 Zrotation Yrotation Xrotation
			JOINT LeftLeg
			{
				OFFSET 2.448110 -6.726130 0.000000
				CHANNELS 3 Zrotation Yrotation Xrotation
				JOINT LeftFoot
				{
					OFFSET 2.562200 -7.039590 0.000000
					CHANNELS 3 Zrotation Yrotation Xrotation
					JOINT LeftToeBase
					{
						OFFSET 0.157640 -0.433110 2.322550
						CHANNELS 3 Zrotation Yrotation Xrotation
						End Site
						{
							OFFSET 0.000000 0.000000 0.000000
						}
					}
				}
			}
		}
	}
	JOINT RHipJoint
	{
		OFFSET 0.000000 0.000000 0.000000
		CHANNELS 3 Zrotation Yrotation Xrotation
		JOINT RightUpLeg
		{
			OFFSET -1.305520 -1.794630 0.839290
			CHANNELS 3 Zrotation Yrotation Xrotation
			JOINT RightLeg
			{
				OFFSET -2.542530 -6.985550 0.000000
				CHANNELS 3 Zrotation Yrotation Xrotation
				JOINT RightFoot
				{
					OFFSET -2.568260 -7.056230 0.000000
					CHANNELS 3 Zrotation Yrotation Xrotation
					JOINT RightToeBase
					{
						OFFSET -0.164730 -0.452590 2.363150
						CHANNELS 3 Zrotation Yrotation Xrotation
						End Site
						{
							OFFSET 0.000000 0.000000 0.000000
						}
					}
				}
			}
		}
	}
	JOINT LowerBack
	{
		OFFSET 0.000000 0.000000 0.000000
		CHANNELS 3 Zrotation Yrotation Xrotation
		JOINT Spine
		{
			OFFSET 0.028270 2.035590 -0.193380
			CHANNELS 3 Zrotation Yrotation Xrotation
			JOINT Spine1
			{
				OFFSET 0.056720 2.048850 -0.042750
				CHANNELS 3 Zrotation Yrotation Xrotation
				JOINT Neck
				{
					OFFSET 0.000000 0.000000 0.000000
					CHANNELS 3 Zrotation Yrotation Xrotation
					JOINT Neck1
					{
						OFFSET -0.054170 1.746240 0.172020
						CHANNELS 3 Zrotation Yrotation Xrotation
						JOINT Head
						{
							OFFSET 0.104070 1.761360 -0.123970
							CHANNELS 3 Zrotation Yrotation Xrotation
							End Site
							{
								OFFSET 0.000000 0.000000 0.000000
							}
						}
					}
				}
				JOINT LeftShoulder
				{
					OFFSET 0.000000 0.000000 0.000000
					CHANNELS 3 Zrotation Yrotation Xrotation
					JOINT LeftArm
					{
						OFFSET 3.362410 1.200890 -0.311210
						CHANNELS 3 Zrotation Yrotation Xrotation
						JOINT LeftForeArm
						{
							OFFSET 4.983000 -0.000000 -0.000000
							CHANNELS 3 Zrotation Yrotation Xrotation
							JOINT LeftHand
							{
								OFFSET 3.483560 -0.000000 -0.000000
								CHANNELS 3 Zrotation Yrotation Xrotation
								JOINT LeftFingerBase
								{
									OFFSET 0.000000 0.000000 0.000000
									CHANNELS 3 Zrotation Yrotation Xrotation
									JOINT LeftHandIndex1
									{
										OFFSET 0.715260 -0.000000 -0.000000
										CHANNELS 3 Zrotation Yrotation Xrotation
										End Site
										{
											OFFSET 0.000000 0.000000 0.000000
										}
									}
								}
								JOINT LThumb
								{
									OFFSET 0.000000 0.000000 0.000000
									CHANNELS 3 Zrotation Yrotation Xrotation
									End Site
									{
										OFFSET 0.000000 0.000000 0.000000
									}
								}
							}
						}
					}
				}
				JOINT RightShoulder
				{
					OFFSET 0.000000 0.000000 0.000000
					CHANNELS 3 Zrotation Yrotation Xrotation
					JOINT RightArm
					{
						OFFSET -3.136600 1.374050 -0.404650
						CHANNELS 3 Zrotation Yrotation Xrotation
						JOINT RightForeArm
						{
							OFFSET -5.241900 -0.000000 -0.000000
							CHANNELS 3 Zrotation Yrotation Xrotation
							JOINT RightHand
							{
								OFFSET -3.444170 -0.000000 -0.000000
								CHANNELS 3 Zrotation Yrotation Xrotation
								JOINT RightFingerBase
								{
									OFFSET 0.000000 0.000000 0.000000
									CHANNELS 3 Zrotation Yrotation Xrotation
									JOINT RightHandIndex1
									{
										OFFSET -0.622530 -0.000000 -0.000000
										CHANNELS 3 Zrotation Yrotation Xrotation
										End Site
										{
											OFFSET 0.000000 0.000000 0.000000
										}
									}
								}
								JOINT RThumb
								{
									OFFSET 0.000000 0.000000 0.000000
									CHANNELS 3 Zrotation Yrotation Xrotation
									End Site
									{
										OFFSET 0.000000 0.000000 0.000000
									}
								}
							}
						}
					}
				}
			}
		}
	}
}
MOTION
Frames: 10
Frame Time: 0.008333
0.044076 17.072854 4.716444 -2.905082 -8.374052 4.931774 11.488416 2.852923 -3.483987 -22.724479 -4.771448 7.093845 -1.565373 1.013252 5.937128 -1.112445 14.589941 -13.120239 0.000700 0.169300 0.465100 -14.152808 -3.354382 -3.324642 29.218832 13.126484 2.822556 1.619360 -3.227168 11.652387 1.909379 -17.885390 -11.254337 -0.093700 1.973800 -5.433100 4.217262 -1.660672 0.009276 1.094366 -2.444565 -5.249692 -2.596562 -1.401887 -3.116597 -3.603450 -8.592997 -13.874948 4.821319 -11.948856 12.954901 -1.501500 -5.049300 10.884300 13.470484 -10.649032 3.295485 -102.424617 10.213064 14.876433 26.356495 -35.562214 -5.460885 0.160530 4.642339 16.874142 4.673255 18.536358 1.444400 -7.125000 0.000000 0.000000 -19.419300 43.177400 0.910300 -13.643605 11.666277 2.793576 96.195918 -2.455799 17.183074 -17.074591 28.532540 -2.700089 -1.201644 -3.215992 16.145266 -9.802651 -10.466991 1.177600 7.125000 0.000000 0.000000 14.475700 -36.725300 3.024300 
0.044721 17.074144 4.714079 -2.902187 -8.468078 4.957148 11.486528 2.854535 -3.482138 -22.727407 -4.691148 7.048934 -1.564386 1.015976 5.938164 -1.112268 14.590897 -13.121350 0.000800 0.187100 0.514100 -14.151538 -3.352708 -3.312044 29.188283 13.137107 2.723538 1.617887 -3.246897 11.680725 1.890974 -17.771782 -11.186790 -0.095900 1.997500 -5.498600 4.213011 -1.632159 0.038929 1.093411 -2.406598 -5.264599 -2.589764 -1.383250 -3.196344 -3.586091 -8.515594 -13.860386 4.813965 -11.846953 12.992448 -1.511100 -4.997800 10.913700 13.477492 -10.664306 3.289066 -102.431215 10.246837 14.889753 26.335441 -35.538518 -5.453502 0.167512 4.644406 16.949491 4.691962 18.540822 1.449200 -7.125000 0.000000 0.000000 -19.403700 43.181000 0.907700 -13.637887 11.689645 2.791153 96.224709 -2.522602 17.130605 -17.077230 28.516150 -2.695542 -1.211164 -3.188844 16.193152 -9.849692 -10.312601 1.159600 7.125000 0.000000 0.000000 14.421900 -36.598700 3.058500 
0.051816 17.070489 4.716336 -2.835651 -8.097706 4.785193 11.493051 2.855147 -3.465466 -22.821957 -5.015351 7.257199 -1.576920 0.989775 5.880243 -1.171179 14.752829 -12.583121 0.006100 -0.505700 -1.389600 -14.134296 -3.370582 -3.355865 29.150071 12.935517 2.984849 1.604067 -3.220768 11.716646 1.921393 -17.968342 -11.419736 -0.089500 1.929200 -5.310100 4.242828 -1.774543 0.153315 1.099981 -2.575526 -5.259447 -2.667536 -1.471122 -3.185707 -3.520006 -8.421097 -13.896055 4.785112 -11.728532 13.026170 -1.538900 -4.936700 10.941400 13.483621 -10.661166 3.286585 -102.439033 10.232953 14.896613 26.326242 -35.519734 -5.444929 0.166787 4.634771 16.995670 4.672377 18.482658 1.439800 -7.125000 0.000000 0.000000 -19.403900 43.134200 0.931100 -13.633891 11.694578 2.791619 96.227714 -2.525392 17.128916 -17.084955 28.543477 -2.702443 -1.189659 -3.232109 16.204647 -9.726482 -10.553005 1.182800 7.125000 0.000000 0.000000 14.537400 -36.794200 3.012700 
0.045903 17.073392 4.712036 -2.888567 -8.425935 4.907606 11.486590 2.857037 -3.483448 -22.731903 -4.700767 7.143002 -1.571200 0.975087 5.841965 -1.131125 14.637940 -12.943232 -0.000000 0.013400 0.036900 -14.150790 -3.353856 -3.315909 29.188607 13.135958 2.773122 1.614413 -3.248332 11.702395 1.897166 -17.813966 -11.237574 -0.093900 1.975800 -5.438800 4.223747 -1.653240 0.069177 1.096795 -2.429754 -5.263727 -2.630697 -1.396518 -3.174771 -3.458852 -8.310791 -13.932789 4.769529 -11.588029 13.083147 -1.569200 -4.860500 10.981700 13.500529 -10.656315 3.275702 -102.392730 10.212602 14.957011 26.289210 -35.494392 -5.434108 0.164977 4.641085 17.025485 4.653144 18.511221 1.439000 -7.125000 0.000000 0.000000 -19.423300 43.155400 0.921500 -13.627221 11.697494 2.786111 96.265728 -2.538448 17.065276 -17.081130 28.530002 -2.698648 -1.175612 -3.238299 16.326199 -9.621939 -10.605261 1.180700 7.125000 0.000000 0.000000 14.615400 -36.838400 3.013500 
0.046011 17.073822 4.710209 -2.891176 -8.478857 4.919205 11.485463 2.857853 -3.485580 -22.725504 -4.647758 7.133764 -1.571318 0.967788 5.822787 -1.128830 14.630409 -12.960277 0.000100 0.056500 0.155100 -14.152870 -3.351035 -3.309223 29.185142 13.168811 2.739599 1.615520 -3.252504 11.701159 1.893520 -17.788144 -11.204778 -0.094400 1.981000 -5.453200 4.229953 -1.635841 0.064438 1.097105 -2.407347 -5.266628 -2.648523 -1.386304 -3.171448 -3.378439 -8.193129 -13.978711 4.740813 -11.441665 13.142360 -1.608600 -4.780700 11.028400 13.514243 -10.652850 3.267242 -102.371376 10.199409 14.987404 26.268410 -35.475484 -5.426425 0.165400 4.641314 17.063952 4.644287 18.507657 1.437200 -7.125000 0.000000 0.000000 -19.427600 43.151800 0.923500 -13.620858 11.704392 2.780941 96.292499 -2.549430 17.026504 -17.076151 28.525042 -2.697134 -1.168545 -3.245243 16.381905 -9.569107 -10.649428 1.182000 7.125000 0.000000 0.000000 14.657300 -36.874600 3.009200 
0.046011 17.074252 4.708489 -2.893976 -8.528606 4.931639 11.484191 2.859594 -3.488913 -22.712003 -4.583644 7.156620 -1.575116 0.934487 5.739729 -1.129128 14.630004 -12.955967 0.000300 0.116600 0.320300 -14.155111 -3.348563 -3.302722 29.182004 13.199667 2.712068 1.617719 -3.252052 11.688741 1.891473 -17.769055 -11.162597 -0.095300 1.990600 -5.479800 4.238899 -1.618730 0.054275 1.097875 -2.385499 -5.269101 -2.673221 -1.376699 -3.158242 -3.274160 -8.054254 -14.041860 4.703939 -11.270600 13.215983 -1.659800 -4.685800 11.088000 13.530312 -10.646315 3.257856 -102.347215 10.183429 15.018381 26.251658 -35.461459 -5.420676 0.165677 4.642072 17.092792 4.638156 18.507796 1.436300 -7.125000 0.000000 0.000000 -19.430900 43.151400 0.923900 -13.613621 11.710746 2.773748 96.321467 -2.552778 16.989423 -17.064447 28.514283 -2.694659 -1.167483 -3.247530 16.425271 -9.550417 -10.667199 1.182700 7.125000 0.000000 0.000000 14.672500 -36.889100 3.007100 
0.046011 17.074789 4.706661 -2.896571 -8.584272 4.947459 11.482635 2.860615 -3.491010 -22.703845 -4.526734 7.149466 -1.575858 0.922152 5.707301 -1.124965 14.618063 -12.992140 0.000900 0.197100 0.541500 -14.157835 -3.345372 -3.295988 29.177995 13.234381 2.678703 1.619806 -3.253213 11.678681 1.889148 -17.747406 -11.115400 -0.096700 2.005000 -5.519500 4.247437 -1.599421 0.039916 1.099242 -2.361046 -5.272138 -2.701370 -1.365851 -3.140335 -3.145401 -7.888825 -14.122572 4.661101 -11.067509 13.307025 -1.721700 -4.572000 11.164300 13.548674 -10.637208 3.247406 -102.322217 10.169062 15.048990 26.239915 -35.454052 -5.417684 0.166541 4.644112 17.107498 4.640729 18.515449 1.437700 -7.125000 0.000000 0.000000 -19.429800 43.157200 0.920900 -13.604890 11.718276 2.764469 96.352854 -2.551642 16.947637 -17.048524 28.500084 -2.692210 -1.164248 -3.256242 16.471423 -9.516939 -10.722622 1.187300 7.125000 0.000000 0.000000 14.703100 -36.934500 2.996900 
0.046441 17.075004 4.705264 -2.893660 -8.608746 4.950814 11.481226 2.861744 -3.490803 -22.703960 -4.500635 7.152443 -1.577170 0.911638 5.679552 -1.125099 14.618828 -12.990729 0.001200 0.220900 0.607000 -14.159049 -3.343965 -3.293381 29.169708 13.245637 2.664380 1.620781 -3.251937 11.671077 1.888483 -17.736082 -11.083011 -0.097800 2.017100 -5.552800 4.259287 -1.591104 0.032417 1.101781 -2.349594 -5.275483 -2.739457 -1.362095 -3.118602 -2.989084 -7.692057 -14.220857 4.613794 -10.825777 13.416109 -1.793000 -4.435900 11.258400 13.568880 -10.625705 3.236237 -102.298530 10.158143 15.077634 26.235245 -35.453608 -5.417298 0.166722 4.646415 17.110108 4.644398 18.524529 1.439500 -7.125000 0.000000 0.000000 -19.428100 43.164200 0.917400 -13.594431 11.727809 2.753526 96.385008 -2.548485 16.908105 -17.031198 28.483626 -2.689011 -1.163947 -3.259696 16.506713 -9.501994 -10.746720 1.189300 7.125000 0.000000 0.000000 14.717000 -36.954100 2.992600 
0.046656 17.075112 4.704081 -2.889004 -8.623194 4.947369 11.479583 2.863014 -3.489898 -22.704782 -4.484546 7.159552 -1.578188 0.903399 5.658459 -1.124418 14.617203 -12.996341 0.001500 0.248200 0.682000 -14.160649 -3.342527 -3.291967 29.164973 13.257509 2.664267 1.621432 -3.249622 11.664663 1.889587 -17.736966 -11.065615 -0.098600 2.024500 -5.573500 4.268605 -1.585659 0.028496 1.105522 -2.341412 -5.279043 -2.780468 -1.359906 -3.093546 -2.806647 -7.461818 -14.333818 4.566703 -10.541466 13.542740 -1.870600 -4.275800 11.370200 13.591481 -10.611571 3.224402 -102.272685 10.151095 15.111822 26.234597 -35.458344 -5.418711 0.166676 4.649670 17.096335 4.653197 18.537971 1.442700 -7.125000 0.000000 0.000000 -19.423700 43.174300 0.912100 -13.582779 11.739178 2.740598 96.421565 -2.539188 16.850330 -17.009197 28.461478 -2.684422 -1.159875 -3.265878 16.569880 -9.458967 -10.790013 1.191200 7.125000 0.000000 0.000000 14.752700 -36.989700 2.987000 
0.046656 17.075219 4.702899 -2.884942 -8.635648 4.942332 11.477408 2.864461 -3.487950 -22.705057 -4.473366 7.161225 -1.578655 0.899989 5.649344 -1.124960 14.618538 -12.989992 0.001500 0.249800 0.686300 -14.162281 -3.341482 -3.291178 29.161110 13.262152 2.664757 1.621982 -3.247014 11.658727 1.889452 -17.732181 -11.051692 -0.099100 2.029700 -5.587800 4.279663 -1.578710 0.026993 1.109934 -2.331182 -5.283621 -2.825480 -1.357026 -3.069854 -2.599798 -7.197571 -14.457272 4.522697 -10.213231 13.685608 -1.951500 -4.091400 11.498900 13.615986 -10.596049 3.211568 -102.244277 10.149776 15.153556 26.236261 -35.465511 -5.420803 0.165426 4.653227 17.073885 4.659133 18.551509 1.445300 -7.125000 0.000000 0.000000 -19.421400 43.184500 0.906900 -13.568933 11.753723 2.726957 96.460280 -2.534549 16.798129 -16.989875 28.438238 -2.679783 -1.164059 -3.261181 16.605691 -9.468938 -10.768997 1.189200 7.125000 0.000000 0.000000 14.743400 -36.972800 2.991300 
